<svg width="118" height="72" viewBox="0 0 118 72" fill="none" xmlns="http://www.w3.org/2000/svg">
<g id="ABR MAIN">
<path id="Vector" d="M0.0381723 49.6399C0.0381723 44.0748 -0.0626852 38.5076 0.0650663 32.9448C0.217472 26.3263 0.764338 19.7415 3.07731 13.4459C4.43551 9.74778 6.33385 6.424 9.49402 3.91156C15.6014 -0.945237 25.8552 0.204524 30.7254 6.30522C33.5987 9.90243 35.1071 14.0824 36.1179 18.4887C37.2385 23.4194 37.633 28.4555 37.6666 33.5051C37.7405 44.5589 37.6957 55.615 37.6935 66.6756C37.6935 70.6875 34.5176 72.8682 30.7456 71.4674C28.9526 70.7951 27.8992 69.2508 27.8589 67.0858C27.8185 64.9588 27.8589 62.8274 27.8409 60.7004C27.8208 58.3404 26.5275 57.0472 24.1406 57.0338C20.6293 57.0158 17.118 57.0158 13.6067 57.0338C11.175 57.0472 9.9109 58.3449 9.89521 60.8035C9.88176 62.9327 9.93107 65.0619 9.87279 67.1889C9.81228 69.5108 8.52804 71.1335 6.47057 71.6266C4.00519 72.2183 1.7236 71.4248 0.643314 69.6094C0.132308 68.7398 0.0247254 67.7873 0.0247254 66.8011C0.0247254 61.0874 0.0247254 55.3737 0.0247254 49.66L0.0381723 49.6399ZM18.1363 31.4117C18.5577 31.7771 18.3335 32.1088 18.3021 32.4158C17.9816 35.4258 17.5872 38.4381 18.7123 41.3808C19.248 42.7816 19.8329 44.1622 20.9334 45.2268C21.8971 46.1569 22.6995 45.9351 22.9908 44.6553C23.7013 41.54 25.008 38.6398 26.3057 35.7486C29.2776 29.1436 28.8428 22.8389 24.7592 16.8369C22.816 13.9793 20.1131 11.794 17.8561 9.21661C17.6791 9.01489 17.4415 8.86249 17.1613 9.00593C16.7826 9.20092 16.7131 9.57969 16.675 9.95846C16.35 13.0402 15.2809 15.8933 14.0662 18.7195C12.6676 21.9738 10.9598 25.1093 10.0476 28.5564C9.15111 31.9183 8.75441 35.3115 10.2247 38.642C12.4659 43.7207 16.1954 47.421 20.9379 50.1621C22.4821 51.0586 23.9837 52.0761 25.7812 52.4347C26.2295 52.5244 26.8682 52.744 27.0049 52.094C27.1192 51.5516 26.4693 51.5875 26.1084 51.4642C21.8859 49.9962 19.0104 47.105 17.4527 42.9811C16.2581 39.8209 16.6929 36.5778 17.4975 33.3885C17.6679 32.7498 17.6813 32.0146 18.1385 31.4117H18.1363Z" fill="white"/>
<path id="Vector_2" d="M39.668 36.3447C39.668 26.4444 39.668 16.5463 39.668 6.65038C39.668 3.55745 41.34 1.84064 44.4442 1.87875C48.7743 1.93029 53.1044 1.70169 57.4434 2.05805C64.1672 2.60939 68.8738 6.49349 70.5368 13.0402C71.4298 16.5218 71.6338 20.1443 71.1375 23.7041C70.864 25.6898 70.0729 27.503 68.9724 29.1839C67.5851 31.3064 67.7106 32.7139 69.5327 34.4531C73.0067 37.7657 74.3716 42.0039 74.8737 46.594C75.3041 50.2346 75.1222 53.9216 74.3358 57.5022C72.5965 65.1695 67.863 69.54 60.0926 70.6875C55.9351 71.3038 51.7484 71.073 47.5707 71.1021C46.2641 71.1021 44.9462 71.1649 43.6552 71.0125C41.0285 70.7032 39.686 69.1231 39.6837 66.4784C39.6673 56.4286 39.6621 46.3841 39.668 36.3447ZM49.5699 52.3876C49.5699 54.215 49.5699 56.0424 49.5699 57.8697C49.5699 57.9437 49.5699 58.0199 49.5699 58.0939C49.6842 59.9855 50.9147 61.1711 52.8085 61.2316C54.6354 61.28 56.4634 61.2013 58.2794 60.9963C62.1501 60.5682 64.1672 58.7057 64.8373 54.8441C65.4078 51.6786 65.3477 48.4317 64.6603 45.2896C63.7122 41.0312 60.4243 38.9693 56.1435 39.8478C52.2661 40.6435 49.2987 43.7588 49.5497 47.9163C49.6326 49.3978 49.5699 50.895 49.5699 52.3876ZM54.3527 11.7604V11.7335C53.6445 11.7335 52.934 11.7335 52.2258 11.7335C50.881 11.7492 50.2647 12.1997 49.8097 13.4548C49.6221 14.0577 49.5409 14.6888 49.5699 15.3195C49.5699 19.5764 49.5699 23.8348 49.5699 28.0947C49.5529 28.5791 49.595 29.0638 49.6954 29.5381C49.933 30.4592 50.5605 30.7663 51.3876 30.3001C53.8238 28.9284 56.3699 27.7294 58.6021 26.0193C59.8572 25.06 61.137 24.0022 61.3275 22.3302C61.6301 19.69 61.6323 17.0363 60.6775 14.4858C60.0276 12.7466 58.7165 11.9039 56.9234 11.7784C56.0695 11.7111 55.1999 11.7604 54.3415 11.7604H54.3527Z" fill="white"/>
<path id="Vector_3" d="M77.3211 36.2932C77.3211 26.4316 77.3211 16.5701 77.3211 6.70861C77.3211 3.40724 78.89 1.82716 82.1712 1.8294C86.5416 1.8294 90.9121 1.80026 95.2803 1.8675C97.7519 1.89946 100.198 2.37467 102.502 3.27053C106.76 4.93578 109.591 8.01302 111.061 12.3185C112.321 16.0076 112.581 19.8222 112.419 23.6951C112.309 26.3577 112.018 28.9777 111.251 31.5395C110.158 35.1815 108.114 38.1063 104.855 40.1504C102.784 41.448 102.21 43.2724 103.062 45.5652C104.707 50.0343 106.648 54.3465 109.786 58.0131C110.745 59.1139 111.901 60.026 113.195 60.7026C114.159 61.1931 115.099 61.7316 116.01 62.3164C117.426 63.2711 117.803 64.5105 117.256 66.1265C116.884 67.3091 116.16 68.3499 115.18 69.1096C111.489 71.9156 106.007 72.1174 102.103 67.4354C99.0859 63.8202 97.2571 59.5731 95.6322 55.2205C94.5362 52.28 93.615 49.279 92.7678 46.2555C92.454 45.1573 91.9789 44.1443 91.1183 43.3778C89.7018 42.1137 88.1665 42.5104 87.4829 44.2743C87.205 44.9915 87.2118 45.7356 87.2118 46.4819C87.2118 52.9068 87.2118 59.3317 87.2118 65.7567C87.2118 66.9625 87.093 68.1526 86.3444 69.1679C85.1184 70.8309 82.4581 71.5055 80.2168 70.7367C78.3073 70.0801 77.3278 68.5963 77.3278 66.308C77.3204 56.3061 77.3181 46.3011 77.3211 36.2932ZM87.223 22.1038C87.223 24.5692 87.1916 27.0345 87.223 29.4999C87.2566 31.405 88.496 32.6758 90.3607 32.752C92.5597 32.8409 94.7622 32.766 96.95 32.5279C99.4983 32.2544 101.311 31.0666 101.95 28.4622C102.893 24.5674 102.977 20.5141 102.197 16.5836C101.688 13.9277 100.052 12.444 97.3803 11.989C95.1122 11.6013 92.8395 11.7649 90.5692 11.7335C88.2988 11.7021 87.2387 12.7578 87.2073 15.0573C87.1938 17.4016 87.223 19.7527 87.223 22.1038Z" fill="white"/>
</g>
</svg>
