<svg width="1728" height="2000" viewBox="0 0 1728 2000" fill="none" xmlns="http://www.w3.org/2000/svg">
<g clip-path="url(#clip0_142_156)">
<g filter="url(#filter0_f_142_156)">
<path d="M358.328 482.03C343.482 534.922 331.225 588.533 355.459 641.362C379.35 693.473 417.213 731.962 473.977 748.957C480.371 750.863 489.073 751.769 486.453 761.079C484.113 769.92 475.755 769.827 468.27 768.046C435.303 760.111 407.357 741.584 379.256 724.027C326.52 691.091 283.339 644.865 254.032 589.97C226.617 539.452 229.268 485.842 243.459 432.107C257.37 379.496 284.005 331.947 304.714 282.148C319.81 245.97 332.005 209.199 336.808 170.178C337.525 164.336 338.243 158.525 344.324 155.839C349.377 153.62 353.681 156.088 356.8 159.9C388.395 198.389 428.909 228.881 456.293 271.276C501.548 341.319 514.741 415.642 488.917 495.995C476.192 535.672 456.168 572.381 442.57 611.589C437.376 626.291 432.993 641.268 429.439 656.451C427.693 664.168 426.913 672.416 417.556 674.696C408.761 676.821 402.679 671.322 397.19 665.73C371.989 640.112 362.04 607.652 355.646 573.412C349.814 542.733 357.424 512.553 358.328 482.03Z" fill="#0065C3"/>
</g>
<g filter="url(#filter1_f_142_156)">
<path d="M358.328 458.926C343.482 511.818 331.225 565.428 355.459 618.257C379.35 670.368 417.213 708.858 473.977 725.853C480.371 727.759 489.073 728.665 486.453 737.975C484.113 746.816 475.755 746.722 468.27 744.941C435.303 737.006 407.357 718.48 379.256 700.922C326.52 667.987 283.339 621.76 254.032 566.865C226.617 516.348 229.268 462.737 243.459 409.002C257.37 356.392 284.005 308.842 304.714 259.043C319.81 222.866 332.005 186.094 336.808 147.074C337.525 141.232 338.243 135.421 344.324 132.734C349.377 130.516 353.681 132.984 356.8 136.795C388.395 175.285 428.909 205.777 456.293 248.171C501.548 318.214 514.741 392.538 488.917 472.891C476.192 512.568 456.168 549.276 442.57 588.484C437.376 603.186 432.993 618.163 429.439 633.347C427.693 641.064 426.913 649.311 417.556 651.592C408.761 653.716 402.679 648.218 397.19 642.626C371.989 617.008 362.04 584.548 355.646 550.307C349.814 519.628 357.424 489.449 358.328 458.926Z" fill="#46BFD9"/>
</g>
<g filter="url(#filter2_f_142_156)">
<path fill-rule="evenodd" clip-rule="evenodd" d="M378.93 507.855C300.263 529.68 291.639 707.519 214.396 681.094C138.214 655.032 236.575 516.78 198.167 446.016C165.868 386.508 57.2903 403.223 29.9553 341.278C1.31684 276.379 4.15805 177.974 61.3943 136.069C122.341 91.4466 205.943 159.282 281.449 157.147C330.498 155.76 374.982 110.6 421.609 125.886C468.617 141.296 484.615 197.395 517.353 234.481C557.442 279.895 618.776 308.894 634.746 367.328C653.277 435.136 671.067 537.647 609.456 571.492C537.835 610.836 457.672 486.01 378.93 507.855Z" fill="#46BFD9"/>
<path fill-rule="evenodd" clip-rule="evenodd" d="M58.3776 454.138C3.36965 477.936 -65.4742 485.96 -117.023 455.383C-167.09 425.686 -172.654 357.66 -194.939 303.883C-212.362 261.84 -221.125 220.173 -232.733 176.167C-250.818 107.605 -307.811 40.5096 -281.815 -25.4601C-255.526 -92.1709 -178.245 -152.69 -107.336 -142.048C-31.5122 -130.667 -13.6485 -26.8834 44.175 23.4671C73.8738 49.3277 119.797 48.4485 145.599 78.1983C173.67 110.565 188.707 151.808 192.496 194.483C196.717 242.022 190.038 289.613 168.135 332.016C142.387 381.864 109.871 431.86 58.3776 454.138Z" fill="#D8E9CB"/>
<path fill-rule="evenodd" clip-rule="evenodd" d="M775.434 476.071C703.33 476.413 666.903 392.593 602.148 360.878C528.361 324.74 407.312 358.733 378.643 281.735C350.4 205.882 450.698 146.647 497.9 80.8948C536.717 26.8221 567.35 -30.52 625.742 -62.4739C704.833 -105.755 810.731 -187.254 877.797 -126.998C948.819 -63.187 838.438 54.9309 859.949 147.953C879.312 231.691 1011.63 275.806 990.188 359.037C969.049 441.109 860.183 475.669 775.434 476.071Z" fill="#9DC980"/>
<path fill-rule="evenodd" clip-rule="evenodd" d="M253.051 222.119C206.733 280.449 203.209 392.426 129.596 403.786C71.5082 412.75 77.8573 300.588 40.9409 254.852C9.68724 216.132 -63.5951 207.167 -69.0316 157.705C-74.7687 105.509 1.99452 78.9174 16.0422 28.3209C29.6753 -20.7825 -25.2742 -83.6641 8.56214 -121.771C41.6888 -159.078 107.5 -142.292 155.522 -128.761C194.21 -117.861 213.561 -75.4271 247.795 -54.3641C269.655 -40.9145 293.787 -33.8368 318.843 -28.2755C378.222 -15.0963 449.704 -38.9309 495.851 0.692104C539.668 38.3152 585.116 124.647 543.132 164.306C485.873 218.394 388.361 159.802 311.113 175.197C286.286 180.145 268.794 202.294 253.051 222.119Z" fill="#0065C3"/>
</g>
<g filter="url(#filter3_f_142_156)">
<path fill-rule="evenodd" clip-rule="evenodd" d="M1646.87 832.575C1574.77 832.912 1538.34 750.433 1473.59 719.225C1399.8 683.665 1278.75 717.114 1250.08 641.348C1221.84 566.709 1322.14 508.421 1369.34 443.721C1408.16 390.514 1438.79 334.089 1497.18 302.647C1576.27 260.058 1682.17 179.863 1749.24 239.155C1820.26 301.945 1709.88 418.173 1731.39 509.707C1750.75 592.105 1883.07 635.514 1861.63 717.413C1840.49 798.172 1731.62 832.179 1646.87 832.575Z" fill="#FFA800" fill-opacity="0.67"/>
</g>
<g filter="url(#filter4_f_142_156)">
<path fill-rule="evenodd" clip-rule="evenodd" d="M1328.93 925.524C1282.61 982.921 1279.09 1093.11 1205.47 1104.28C1147.39 1113.1 1153.73 1002.74 1116.82 957.733C1085.56 919.632 1012.28 910.811 1006.85 862.14C1001.11 810.779 1077.87 784.613 1091.92 734.826C1105.55 686.509 1050.6 624.633 1084.44 587.136C1117.57 550.426 1183.38 566.943 1231.4 580.257C1270.09 590.984 1289.44 632.738 1323.67 653.464C1345.53 666.699 1369.66 673.663 1394.72 679.136C1454.1 692.104 1525.58 668.651 1571.73 707.64C1615.55 744.661 1660.99 829.612 1619.01 868.636C1561.75 921.859 1464.24 864.203 1386.99 879.353C1362.16 884.221 1344.67 906.016 1328.93 925.524Z" fill="#9046D9"/>
</g>
<g filter="url(#filter5_f_142_156)">
<path fill-rule="evenodd" clip-rule="evenodd" d="M1745.93 1184.52C1699.61 1241.92 1696.09 1352.11 1622.47 1363.28C1564.39 1372.1 1570.73 1261.74 1533.82 1216.73C1502.56 1178.63 1429.28 1169.81 1423.85 1121.14C1418.11 1069.78 1494.87 1043.61 1508.92 993.826C1522.55 945.509 1467.6 883.633 1501.44 846.136C1534.57 809.426 1600.38 825.943 1648.4 839.257C1687.09 849.984 1706.44 891.738 1740.67 912.464C1762.53 925.699 1786.66 932.663 1811.72 938.136C1871.1 951.104 1942.58 927.651 1988.73 966.64C2032.55 1003.66 2077.99 1088.61 2036.01 1127.64C1978.75 1180.86 1881.24 1123.2 1803.99 1138.35C1779.16 1143.22 1761.67 1165.02 1745.93 1184.52Z" fill="#9046D9"/>
</g>
<g filter="url(#filter6_f_142_156)">
<path d="M1152.47 1397.28C1226.09 1386.11 1229.61 1275.92 1275.93 1218.52L1276.14 1218.26C1291.83 1198.82 1309.28 1177.2 1333.99 1172.35C1411.24 1157.2 1508.75 1214.86 1566.01 1161.64C1607.99 1122.61 1562.55 1037.66 1518.73 1000.64C1472.58 961.651 1401.1 985.104 1341.72 972.136C1316.66 966.663 1292.53 959.699 1270.67 946.464C1236.44 925.738 1217.09 883.984 1178.4 873.257C1130.38 859.943 1064.57 843.426 1031.44 880.136C997.603 917.633 1052.55 979.509 1038.92 1027.83C1024.87 1077.61 948.108 1103.78 953.845 1155.14C959.282 1203.81 1032.56 1212.63 1063.82 1250.73C1100.73 1295.74 1094.39 1406.1 1152.47 1397.28Z" fill="#0065C3"/>
</g>
</g>
<defs>
<filter id="filter0_f_142_156" x="153" y="75" width="429" height="774" filterUnits="userSpaceOnUse" color-interpolation-filters="sRGB">
<feFlood flood-opacity="0" result="BackgroundImageFix"/>
<feBlend mode="normal" in="SourceGraphic" in2="BackgroundImageFix" result="shape"/>
<feGaussianBlur stdDeviation="40" result="effect1_foregroundBlur_142_156"/>
</filter>
<filter id="filter1_f_142_156" x="223" y="121.896" width="289" height="634" filterUnits="userSpaceOnUse" color-interpolation-filters="sRGB">
<feFlood flood-opacity="0" result="BackgroundImageFix"/>
<feBlend mode="normal" in="SourceGraphic" in2="BackgroundImageFix" result="shape"/>
<feGaussianBlur stdDeviation="5" result="effect1_foregroundBlur_142_156"/>
</filter>
<filter id="filter2_f_142_156" x="-488.497" y="-348.426" width="1681.03" height="1232.19" filterUnits="userSpaceOnUse" color-interpolation-filters="sRGB">
<feFlood flood-opacity="0" result="BackgroundImageFix"/>
<feBlend mode="normal" in="SourceGraphic" in2="BackgroundImageFix" result="shape"/>
<feGaussianBlur stdDeviation="100" result="effect1_foregroundBlur_142_156"/>
</filter>
<filter id="filter3_f_142_156" x="995.154" y="-31.9302" width="1118.81" height="1114.51" filterUnits="userSpaceOnUse" color-interpolation-filters="sRGB">
<feFlood flood-opacity="0" result="BackgroundImageFix"/>
<feBlend mode="normal" in="SourceGraphic" in2="BackgroundImageFix" result="shape"/>
<feGaussianBlur stdDeviation="125" result="effect1_foregroundBlur_142_156"/>
</filter>
<filter id="filter4_f_142_156" x="506.54" y="64.7694" width="1629.13" height="1540.01" filterUnits="userSpaceOnUse" color-interpolation-filters="sRGB">
<feFlood flood-opacity="0" result="BackgroundImageFix"/>
<feBlend mode="normal" in="SourceGraphic" in2="BackgroundImageFix" result="shape"/>
<feGaussianBlur stdDeviation="250" result="effect1_foregroundBlur_142_156"/>
</filter>
<filter id="filter5_f_142_156" x="1223.54" y="623.77" width="1029.13" height="940.013" filterUnits="userSpaceOnUse" color-interpolation-filters="sRGB">
<feFlood flood-opacity="0" result="BackgroundImageFix"/>
<feBlend mode="normal" in="SourceGraphic" in2="BackgroundImageFix" result="shape"/>
<feGaussianBlur stdDeviation="100" result="effect1_foregroundBlur_142_156"/>
</filter>
<filter id="filter6_f_142_156" x="553.54" y="457.769" width="1429.13" height="1340.01" filterUnits="userSpaceOnUse" color-interpolation-filters="sRGB">
<feFlood flood-opacity="0" result="BackgroundImageFix"/>
<feBlend mode="normal" in="SourceGraphic" in2="BackgroundImageFix" result="shape"/>
<feGaussianBlur stdDeviation="200" result="effect1_foregroundBlur_142_156"/>
</filter>
<clipPath id="clip0_142_156">
<rect width="1728" height="2000" fill="white"/>
</clipPath>
</defs>
</svg>
